<svg width="223" height="228" viewBox="0 0 223 228" fill="none" xmlns="http://www.w3.org/2000/svg">
<ellipse cx="111.5" cy="111" rx="97.5" ry="98" fill="url(#paint0_linear_18_42)" fill-opacity="0.2"/>
<circle cx="111.5" cy="111.5" r="111.5" fill="url(#paint1_linear_18_42)" fill-opacity="0.05"/>
<path d="M216.884 98.6633C218.563 97.8769 220.561 98.6007 221.348 100.28V100.28C222.134 101.959 221.41 103.957 219.731 104.744L186.288 120.405L183.441 114.325L216.884 98.6633Z" fill="#FC9D91"/>
<path d="M5.88792 98.496C4.20883 97.7097 2.21022 98.4334 1.4239 100.113V100.113C0.637587 101.792 1.36132 103.79 3.04042 104.577L36.4833 120.238L39.3308 114.157L5.88792 98.496Z" fill="#FC9C91"/>
<path d="M133 224.5C133 226.433 134.567 228 136.5 228V228C138.433 228 140 226.433 140 224.5V188H133V224.5Z" fill="#FC9C91"/>
<path d="M78 224.5C78 226.433 79.567 228 81.5 228V228C83.433 228 85 226.433 85 224.5V188H78V224.5Z" fill="#FC9D91"/>
<circle cx="113" cy="112" r="84" fill="url(#paint2_radial_18_42)"/>
<path d="M55 102C55 94.268 61.268 88 69 88H154C161.732 88 168 94.268 168 102V120C168 127.732 161.732 134 154 134H69C61.268 134 55 127.732 55 120V102Z" fill="#030516"/>
<g filter="url(#filter0_d_18_42)">
<path d="M103 117.807C103 122.741 99.7887 117.807 94.8182 117.807C89.8476 117.807 85 122.741 85 117.807C85 112.873 89.0294 104 94 104C98.9706 104 103 112.873 103 117.807Z" fill="#4DFAFB"/>
</g>
<g filter="url(#filter1_d_18_42)">
<path d="M141 117.807C141 122.741 137.789 117.807 132.818 117.807C127.848 117.807 123 122.741 123 117.807C123 112.873 127.029 104 132 104C136.971 104 141 112.873 141 117.807Z" fill="#4DFAFB"/>
</g>
<defs>
<filter id="filter0_d_18_42" x="79" y="98" width="30" height="28" filterUnits="userSpaceOnUse" color-interpolation-filters="sRGB">
<feFlood flood-opacity="0" result="BackgroundImageFix"/>
<feColorMatrix in="SourceAlpha" type="matrix" values="0 0 0 0 0 0 0 0 0 0 0 0 0 0 0 0 0 0 127 0" result="hardAlpha"/>
<feOffset/>
<feGaussianBlur stdDeviation="3"/>
<feColorMatrix type="matrix" values="0 0 0 0 0.298039 0 0 0 0 0.972549 0 0 0 0 0.976471 0 0 0 1 0"/>
<feBlend mode="normal" in2="BackgroundImageFix" result="effect1_dropShadow_18_42"/>
<feBlend mode="normal" in="SourceGraphic" in2="effect1_dropShadow_18_42" result="shape"/>
</filter>
<filter id="filter1_d_18_42" x="117" y="98" width="30" height="28" filterUnits="userSpaceOnUse" color-interpolation-filters="sRGB">
<feFlood flood-opacity="0" result="BackgroundImageFix"/>
<feColorMatrix in="SourceAlpha" type="matrix" values="0 0 0 0 0 0 0 0 0 0 0 0 0 0 0 0 0 0 127 0" result="hardAlpha"/>
<feOffset/>
<feGaussianBlur stdDeviation="3"/>
<feColorMatrix type="matrix" values="0 0 0 0 0.298039 0 0 0 0 0.972549 0 0 0 0 0.976471 0 0 0 1 0"/>
<feBlend mode="normal" in2="BackgroundImageFix" result="effect1_dropShadow_18_42"/>
<feBlend mode="normal" in="SourceGraphic" in2="effect1_dropShadow_18_42" result="shape"/>
</filter>
<linearGradient id="paint0_linear_18_42" x1="111.5" y1="13" x2="111.5" y2="209" gradientUnits="userSpaceOnUse">
<stop stop-color="white"/>
<stop offset="1"/>
</linearGradient>
<linearGradient id="paint1_linear_18_42" x1="111.5" y1="0" x2="111.5" y2="223" gradientUnits="userSpaceOnUse">
<stop stop-color="white"/>
<stop offset="1" stop-color="#8D8D8D"/>
</linearGradient>
<radialGradient id="paint2_radial_18_42" cx="0" cy="0" r="1" gradientUnits="userSpaceOnUse" gradientTransform="translate(163 51.5) rotate(127.405) scale(160.507)">
<stop stop-color="#FC9C91"/>
<stop offset="1" stop-color="#F8D595"/>
</radialGradient>
</defs>
</svg>
