<svg width="151" height="46" viewBox="0 0 151 46" fill="none" xmlns="http://www.w3.org/2000/svg">
<path d="M21.18 45L10.98 30.96V45H0.72V0.599999H10.98V25.14L21.12 11.52H33.78L19.86 28.32L33.9 45H21.18ZM70.8698 11.52V45H60.6098V40.44C59.5698 41.92 58.1498 43.12 56.3498 44.04C54.5898 44.92 52.6298 45.36 50.4698 45.36C47.9098 45.36 45.6498 44.8 43.6898 43.68C41.7298 42.52 40.2098 40.86 39.1298 38.7C38.0498 36.54 37.5098 34 37.5098 31.08V11.52H47.7098V29.7C47.7098 31.94 48.2898 33.68 49.4498 34.92C50.6098 36.16 52.1698 36.78 54.1298 36.78C56.1298 36.78 57.7098 36.16 58.8698 34.92C60.0298 33.68 60.6098 31.94 60.6098 29.7V11.52H70.8698ZM88.4995 16.26C89.4595 14.7 90.8395 13.44 92.6395 12.48C94.4395 11.52 96.4995 11.04 98.8195 11.04C101.58 11.04 104.08 11.74 106.32 13.14C108.56 14.54 110.32 16.54 111.6 19.14C112.92 21.74 113.58 24.76 113.58 28.2C113.58 31.64 112.92 34.68 111.6 37.32C110.32 39.92 108.56 41.94 106.32 43.38C104.08 44.78 101.58 45.48 98.8195 45.48C96.4595 45.48 94.3995 45.02 92.6395 44.1C90.8795 43.14 89.4995 41.88 88.4995 40.32V45H78.2395V0.599999H88.4995V16.26ZM103.14 28.2C103.14 25.64 102.42 23.64 100.98 22.2C99.5795 20.72 97.8395 19.98 95.7595 19.98C93.7195 19.98 91.9795 20.72 90.5395 22.2C89.1395 23.68 88.4395 25.7 88.4395 28.26C88.4395 30.82 89.1395 32.84 90.5395 34.32C91.9795 35.8 93.7195 36.54 95.7595 36.54C97.7995 36.54 99.5395 35.8 100.98 34.32C102.42 32.8 103.14 30.76 103.14 28.2ZM150.522 27.72C150.522 28.68 150.462 29.68 150.342 30.72H127.122C127.282 32.8 127.942 34.4 129.102 35.52C130.302 36.6 131.762 37.14 133.482 37.14C136.042 37.14 137.822 36.06 138.822 33.9H149.742C149.182 36.1 148.162 38.08 146.682 39.84C145.242 41.6 143.422 42.98 141.222 43.98C139.022 44.98 136.562 45.48 133.842 45.48C130.562 45.48 127.642 44.78 125.082 43.38C122.522 41.98 120.522 39.98 119.082 37.38C117.642 34.78 116.922 31.74 116.922 28.26C116.922 24.78 117.622 21.74 119.022 19.14C120.462 16.54 122.462 14.54 125.022 13.14C127.582 11.74 130.522 11.04 133.842 11.04C137.082 11.04 139.962 11.72 142.482 13.08C145.002 14.44 146.962 16.38 148.362 18.9C149.802 21.42 150.522 24.36 150.522 27.72ZM140.022 25.02C140.022 23.26 139.422 21.86 138.222 20.82C137.022 19.78 135.522 19.26 133.722 19.26C132.002 19.26 130.542 19.76 129.342 20.76C128.182 21.76 127.462 23.18 127.182 25.02H140.022Z" fill="url(#paint0_linear_14_5)"/>
<defs>
<linearGradient id="paint0_linear_14_5" x1="-3" y1="24" x2="153" y2="24" gradientUnits="userSpaceOnUse">
<stop stop-color="#F7D895"/>
<stop offset="1" stop-color="#FC9991"/>
</linearGradient>
</defs>
</svg>
